<svg width="99" height="33" viewBox="0 0 99 33" fill="none" xmlns="http://www.w3.org/2000/svg">
<path d="M0.992 27.472H3.008V14.096H0.992V9.904L10.496 8.944V11.6C11.0293 10.8533 11.712 10.224 12.544 9.712C13.3973 9.2 14.3893 8.944 15.52 8.944C17.0133 8.944 18.2827 9.328 19.328 10.096C20.3733 10.864 21.1627 11.8987 21.696 13.2C22.2293 14.5013 22.496 15.952 22.496 17.552C22.496 19.152 22.2293 20.6133 21.696 21.936C21.184 23.2587 20.3947 24.3147 19.328 25.104C18.2827 25.8933 17.0027 26.288 15.488 26.288C14.4427 26.288 13.4827 26.0853 12.608 25.68C11.7547 25.2533 11.0507 24.7413 10.496 24.144V27.504H12.512V32.208H0.992V27.472ZM12.736 21.712C13.6747 21.712 14.368 21.3387 14.816 20.592C15.264 19.8453 15.488 18.864 15.488 17.648C15.488 16.3893 15.2427 15.3867 14.752 14.64C14.2613 13.8933 13.6213 13.52 12.832 13.52C12.2987 13.52 11.8187 13.6587 11.392 13.936C10.9653 14.192 10.6667 14.5333 10.496 14.96V20.368C10.9653 21.264 11.712 21.712 12.736 21.712ZM31.229 7.632C29.9277 7.632 28.8503 7.32267 27.997 6.704C27.165 6.08533 26.749 5.2 26.749 4.048C26.749 2.896 27.165 2.02133 27.997 1.424C28.8503 0.826665 29.9383 0.527998 31.261 0.527998C32.5837 0.527998 33.661 0.826665 34.493 1.424C35.325 2 35.741 2.87466 35.741 4.048C35.741 5.2 35.3143 6.08533 34.461 6.704C33.6077 7.32267 32.5303 7.632 31.229 7.632ZM25.469 26V21.296H27.485V14.096H25.469V10.256L34.973 9.264V21.296H36.989V26H25.469ZM39.812 26V21.296H42.148L44.964 18L42.116 14.096H40.1V9.264H47.844L50.372 13.168L53.252 9.264H57.54V14.096H55.492L52.964 16.944L55.972 21.296H58.02V26H50.628L47.684 21.68L44.452 26H39.812ZM70.4373 26.288C68.5599 26.288 66.9066 25.9467 65.4773 25.264C64.0479 24.56 62.9386 23.5467 62.1493 22.224C61.3599 20.88 60.9653 19.2907 60.9653 17.456C60.9653 15.6427 61.3599 14.096 62.1493 12.816C62.9386 11.536 64.0479 10.576 65.4773 9.936C66.9066 9.27467 68.5599 8.944 70.4373 8.944C73.3173 8.944 75.6213 9.69067 77.3493 11.184C79.0773 12.656 79.9413 14.7467 79.9413 17.456C79.9413 19.2907 79.5466 20.88 78.7573 22.224C77.9679 23.5467 76.8586 24.56 75.4293 25.264C73.9999 25.9467 72.3359 26.288 70.4373 26.288ZM70.4373 21.712C71.1199 21.712 71.6213 21.3813 71.9413 20.72C72.2826 20.0373 72.4533 18.9493 72.4533 17.456C72.4533 16.0693 72.2933 15.0667 71.9733 14.448C71.6533 13.8293 71.1413 13.52 70.4373 13.52C69.7546 13.52 69.2533 13.8293 68.9333 14.448C68.6133 15.0667 68.4533 16.0693 68.4533 17.456C68.4533 18.9493 68.6133 20.0373 68.9333 20.72C69.2746 21.3813 69.7759 21.712 70.4373 21.712ZM91.705 26.288C89.5717 26.288 87.6837 25.7227 86.041 24.592L85.529 26H82.617V19.824H86.105C86.233 20.6133 86.5957 21.328 87.193 21.968C87.8117 22.5867 88.5157 22.896 89.305 22.896C89.6037 22.896 89.8597 22.8107 90.073 22.64C90.3077 22.4693 90.425 22.192 90.425 21.808C90.425 21.424 90.201 21.0827 89.753 20.784C89.3263 20.464 88.665 20.0907 87.769 19.664C86.7023 19.1307 85.8277 18.6507 85.145 18.224C84.4623 17.776 83.865 17.2 83.353 16.496C82.8623 15.7707 82.617 14.9067 82.617 13.904C82.617 12.8587 82.9477 11.9627 83.609 11.216C84.2917 10.4693 85.1877 9.904 86.297 9.52C87.4063 9.136 88.6117 8.944 89.913 8.944C91.6197 8.944 93.1983 9.392 94.649 10.288L95.033 9.264H97.625V14.256H94.617C94.361 13.5733 93.9877 13.04 93.497 12.656C93.0063 12.272 92.4303 12.08 91.769 12.08C91.4063 12.08 91.1183 12.1333 90.905 12.24C90.713 12.3467 90.617 12.5387 90.617 12.816C90.6383 13.1573 90.841 13.4453 91.225 13.68C91.609 13.9147 92.249 14.224 93.145 14.608C94.2543 15.0773 95.1717 15.5253 95.897 15.952C96.6223 16.3787 97.2517 16.9867 97.785 17.776C98.3397 18.544 98.617 19.504 98.617 20.656C98.617 21.872 98.297 22.9067 97.657 23.76C97.017 24.592 96.1743 25.2213 95.129 25.648C94.0837 26.0747 92.9423 26.288 91.705 26.288Z" fill="#F9F871"/>
<path d="M0.992 27.472H3.008V14.096H0.992V9.904L10.496 8.944V11.6C11.0293 10.8533 11.712 10.224 12.544 9.712C13.3973 9.2 14.3893 8.944 15.52 8.944C17.0133 8.944 18.2827 9.328 19.328 10.096C20.3733 10.864 21.1627 11.8987 21.696 13.2C22.2293 14.5013 22.496 15.952 22.496 17.552C22.496 19.152 22.2293 20.6133 21.696 21.936C21.184 23.2587 20.3947 24.3147 19.328 25.104C18.2827 25.8933 17.0027 26.288 15.488 26.288C14.4427 26.288 13.4827 26.0853 12.608 25.68C11.7547 25.2533 11.0507 24.7413 10.496 24.144V27.504H12.512V32.208H0.992V27.472ZM12.736 21.712C13.6747 21.712 14.368 21.3387 14.816 20.592C15.264 19.8453 15.488 18.864 15.488 17.648C15.488 16.3893 15.2427 15.3867 14.752 14.64C14.2613 13.8933 13.6213 13.52 12.832 13.52C12.2987 13.52 11.8187 13.6587 11.392 13.936C10.9653 14.192 10.6667 14.5333 10.496 14.96V20.368C10.9653 21.264 11.712 21.712 12.736 21.712ZM31.229 7.632C29.9277 7.632 28.8503 7.32267 27.997 6.704C27.165 6.08533 26.749 5.2 26.749 4.048C26.749 2.896 27.165 2.02133 27.997 1.424C28.8503 0.826665 29.9383 0.527998 31.261 0.527998C32.5837 0.527998 33.661 0.826665 34.493 1.424C35.325 2 35.741 2.87466 35.741 4.048C35.741 5.2 35.3143 6.08533 34.461 6.704C33.6077 7.32267 32.5303 7.632 31.229 7.632ZM25.469 26V21.296H27.485V14.096H25.469V10.256L34.973 9.264V21.296H36.989V26H25.469ZM39.812 26V21.296H42.148L44.964 18L42.116 14.096H40.1V9.264H47.844L50.372 13.168L53.252 9.264H57.54V14.096H55.492L52.964 16.944L55.972 21.296H58.02V26H50.628L47.684 21.68L44.452 26H39.812ZM70.4373 26.288C68.5599 26.288 66.9066 25.9467 65.4773 25.264C64.0479 24.56 62.9386 23.5467 62.1493 22.224C61.3599 20.88 60.9653 19.2907 60.9653 17.456C60.9653 15.6427 61.3599 14.096 62.1493 12.816C62.9386 11.536 64.0479 10.576 65.4773 9.936C66.9066 9.27467 68.5599 8.944 70.4373 8.944C73.3173 8.944 75.6213 9.69067 77.3493 11.184C79.0773 12.656 79.9413 14.7467 79.9413 17.456C79.9413 19.2907 79.5466 20.88 78.7573 22.224C77.9679 23.5467 76.8586 24.56 75.4293 25.264C73.9999 25.9467 72.3359 26.288 70.4373 26.288ZM70.4373 21.712C71.1199 21.712 71.6213 21.3813 71.9413 20.72C72.2826 20.0373 72.4533 18.9493 72.4533 17.456C72.4533 16.0693 72.2933 15.0667 71.9733 14.448C71.6533 13.8293 71.1413 13.52 70.4373 13.52C69.7546 13.52 69.2533 13.8293 68.9333 14.448C68.6133 15.0667 68.4533 16.0693 68.4533 17.456C68.4533 18.9493 68.6133 20.0373 68.9333 20.72C69.2746 21.3813 69.7759 21.712 70.4373 21.712ZM91.705 26.288C89.5717 26.288 87.6837 25.7227 86.041 24.592L85.529 26H82.617V19.824H86.105C86.233 20.6133 86.5957 21.328 87.193 21.968C87.8117 22.5867 88.5157 22.896 89.305 22.896C89.6037 22.896 89.8597 22.8107 90.073 22.64C90.3077 22.4693 90.425 22.192 90.425 21.808C90.425 21.424 90.201 21.0827 89.753 20.784C89.3263 20.464 88.665 20.0907 87.769 19.664C86.7023 19.1307 85.8277 18.6507 85.145 18.224C84.4623 17.776 83.865 17.2 83.353 16.496C82.8623 15.7707 82.617 14.9067 82.617 13.904C82.617 12.8587 82.9477 11.9627 83.609 11.216C84.2917 10.4693 85.1877 9.904 86.297 9.52C87.4063 9.136 88.6117 8.944 89.913 8.944C91.6197 8.944 93.1983 9.392 94.649 10.288L95.033 9.264H97.625V14.256H94.617C94.361 13.5733 93.9877 13.04 93.497 12.656C93.0063 12.272 92.4303 12.08 91.769 12.08C91.4063 12.08 91.1183 12.1333 90.905 12.24C90.713 12.3467 90.617 12.5387 90.617 12.816C90.6383 13.1573 90.841 13.4453 91.225 13.68C91.609 13.9147 92.249 14.224 93.145 14.608C94.2543 15.0773 95.1717 15.5253 95.897 15.952C96.6223 16.3787 97.2517 16.9867 97.785 17.776C98.3397 18.544 98.617 19.504 98.617 20.656C98.617 21.872 98.297 22.9067 97.657 23.76C97.017 24.592 96.1743 25.2213 95.129 25.648C94.0837 26.0747 92.9423 26.288 91.705 26.288Z" fill="url(#paint0_linear)"/>
<defs>
<linearGradient id="paint0_linear" x1="96" y1="26" x2="-2.36627e-06" y2="15" gradientUnits="userSpaceOnUse">
<stop stop-color="#B78A00" stop-opacity="0.55"/>
<stop offset="1" stop-color="#85D680" stop-opacity="0.4"/>
</linearGradient>
</defs>
</svg>
